<svg id="visual" viewBox="0 0 960 540" width="960" height="540" xmlns="http://www.w3.org/2000/svg" xmlns:xlink="http://www.w3.org/1999/xlink" version="1.1"><path d="M0 375L20 380C40 385 80 395 120 393.8C160 392.7 200 380.3 240 380C280 379.7 320 391.3 360 387.2C400 383 440 363 480 364C520 365 560 387 600 398C640 409 680 409 720 397.3C760 385.7 800 362.3 840 355C880 347.7 920 356.3 940 360.7L960 365L960 0L940 0C920 0 880 0 840 0C800 0 760 0 720 0C680 0 640 0 600 0C560 0 520 0 480 0C440 0 400 0 360 0C320 0 280 0 240 0C200 0 160 0 120 0C80 0 40 0 20 0L0 0Z" fill="#06427a"></path><path d="M0 358L20 353C40 348 80 338 120 324C160 310 200 292 240 290.3C280 288.7 320 303.3 360 305.2C400 307 440 296 480 290.5C520 285 560 285 600 291.8C640 298.7 680 312.3 720 321C760 329.7 800 333.3 840 330.2C880 327 920 317 940 312L960 307L960 0L940 0C920 0 880 0 840 0C800 0 760 0 720 0C680 0 640 0 600 0C560 0 520 0 480 0C440 0 400 0 360 0C320 0 280 0 240 0C200 0 160 0 120 0C80 0 40 0 20 0L0 0Z" fill="#02305c"></path><path d="M0 222L20 218.2C40 214.3 80 206.7 120 213.2C160 219.7 200 240.3 240 245.8C280 251.3 320 241.7 360 233.2C400 224.7 440 217.3 480 219.2C520 221 560 232 600 227.5C640 223 680 203 720 199.2C760 195.3 800 207.7 840 211C880 214.3 920 208.7 940 205.8L960 203L960 0L940 0C920 0 880 0 840 0C800 0 760 0 720 0C680 0 640 0 600 0C560 0 520 0 480 0C440 0 400 0 360 0C320 0 280 0 240 0C200 0 160 0 120 0C80 0 40 0 20 0L0 0Z" fill="#001f3f"></path><path d="M0 129L20 128.2C40 127.3 80 125.7 120 128.7C160 131.7 200 139.3 240 146.7C280 154 320 161 360 168.3C400 175.7 440 183.3 480 175.2C520 167 560 143 600 131.5C640 120 680 121 720 134.3C760 147.7 800 173.3 840 179.7C880 186 920 173 940 166.5L960 160L960 0L940 0C920 0 880 0 840 0C800 0 760 0 720 0C680 0 640 0 600 0C560 0 520 0 480 0C440 0 400 0 360 0C320 0 280 0 240 0C200 0 160 0 120 0C80 0 40 0 20 0L0 0Z" fill="#011c37"></path><path d="M0 79L20 83.8C40 88.7 80 98.3 120 96.8C160 95.3 200 82.7 240 80C280 77.3 320 84.7 360 91.8C400 99 440 106 480 101.5C520 97 560 81 600 73.3C640 65.7 680 66.3 720 72.5C760 78.7 800 90.3 840 88.2C880 86 920 70 940 62L960 54L960 0L940 0C920 0 880 0 840 0C800 0 760 0 720 0C680 0 640 0 600 0C560 0 520 0 480 0C440 0 400 0 360 0C320 0 280 0 240 0C200 0 160 0 120 0C80 0 40 0 20 0L0 0Z" fill="#02192f"></path></svg>